<svg width="348" height="38" viewBox="0 0 348 38" fill="none" xmlns="http://www.w3.org/2000/svg">
<path d="M236.7 20.58L230.31 27.24L239.97 37.32H252.96L236.8 20.48L236.7 20.59V20.58ZM204.77 0.61L222.37 18.97L204.77 37.32H217.76L228.86 25.74L235.36 18.97L228.86 12.19L217.76 0.61H204.77ZM239.97 0.61L230.31 10.69L236.7 17.36L236.8 17.47L252.96 0.61H239.97ZM0 37.35H10.15V0.6H0V37.35ZM148.56 0.6L133.17 24.99L118.42 0.6H105.97L126.51 33.83C127.23 35 128.1 35.98 129.13 36.77C130.16 37.56 131.44 37.95 132.98 37.95C134.52 37.95 135.86 37.53 136.9 36.69C137.94 35.85 138.83 34.89 139.55 33.83L160.52 0.6H148.56ZM164.15 0.6V37.35H195.71L202.23 27.9H174.34V22.9H194.48L200.31 14.55H174.33V10.16H195.55L202.12 0.6H164.14H164.15ZM289.08 0.6V21.31C289.08 22.59 288.91 23.69 288.56 24.61C288.22 25.53 287.65 26.28 286.87 26.86C286.08 27.45 285.04 27.87 283.73 28.12C282.42 28.38 280.79 28.5 278.83 28.5C276.22 28.5 274.09 28.38 272.46 28.14C270.83 27.9 269.56 27.5 268.66 26.93C267.76 26.36 267.15 25.62 266.82 24.71C266.49 23.8 266.33 22.66 266.33 21.3V0.6H256.23V21.31C256.23 24.09 256.66 26.52 257.53 28.59C258.4 30.66 259.75 32.39 261.6 33.78C263.45 35.17 265.79 36.21 268.63 36.91C271.47 37.61 274.87 37.95 278.82 37.95C292.45 37.95 299.26 32.4 299.26 21.31V0.6H289.07H289.08ZM318.34 0.6C315.86 0.6 313.73 0.88 311.94 1.42C310.16 1.97 308.71 2.74 307.58 3.73C306.45 4.72 305.62 5.92 305.08 7.33C304.54 8.74 304.27 10.31 304.27 12.03C304.27 13.6 304.51 15.04 305 16.34C305.49 17.64 306.24 18.75 307.25 19.66C308.26 20.58 309.54 21.29 311.07 21.8C312.6 22.31 314.44 22.57 316.56 22.57H334.4C335.61 22.57 336.49 22.77 337.05 23.17C337.61 23.57 337.88 24.25 337.88 25.2C337.88 26.15 337.6 26.84 337.05 27.26C336.49 27.68 335.61 27.89 334.4 27.89H309.6L303.08 37.34H333.62C336.1 37.34 338.24 37.07 340.02 36.52C341.8 35.97 343.26 35.18 344.41 34.16C345.55 33.13 346.39 31.87 346.91 30.37C347.43 28.87 347.69 27.18 347.69 25.32C347.69 21.95 346.64 19.43 344.55 17.77C342.46 16.1 339.4 15.27 335.38 15.27H317.54C316.36 15.27 315.49 15.08 314.92 14.69C314.35 14.31 314.06 13.64 314.06 12.68C314.06 11.72 314.35 11.07 314.92 10.7C315.49 10.33 316.37 10.15 317.54 10.15H340.28L346.8 0.59H318.32L318.34 0.6ZM19.78 0.39C19.11 0.65 18.52 1.05 18.02 1.6C17.51 2.15 17.1 2.86 16.79 3.74C16.48 4.62 16.32 5.66 16.32 6.87V37.35H25.53V15.77L45.63 35.98C46.41 36.82 47.12 37.36 47.76 37.6C48.4 37.84 49.04 37.96 49.7 37.96C50.42 37.96 51.12 37.83 51.81 37.58C52.5 37.32 53.09 36.91 53.6 36.34C54.11 35.77 54.52 35.05 54.83 34.17C55.14 33.29 55.3 32.25 55.3 31.04V0.6H46.04V22.19L25.93 1.98C25.11 1.14 24.39 0.6 23.75 0.36C23.11 0.12 22.48 0 21.86 0C21.14 0 20.45 0.13 19.78 0.39ZM77.74 28.05C75.98 27.81 74.55 27.35 73.45 26.65C72.36 25.95 71.56 24.99 71.07 23.77C70.58 22.54 70.34 20.94 70.34 18.96C70.34 16.98 70.58 15.38 71.07 14.15C71.56 12.92 72.35 11.97 73.45 11.29C74.54 10.61 75.97 10.16 77.74 9.92C79.51 9.68 81.66 9.56 84.21 9.56C86.76 9.56 88.92 9.68 90.68 9.92C92.45 10.16 93.87 10.62 94.97 11.29C96.07 11.97 96.86 12.92 97.35 14.15C97.84 15.38 98.09 16.98 98.09 18.96C98.09 20.94 97.85 22.54 97.35 23.77C96.86 25 96.07 25.96 94.97 26.65C93.88 27.35 92.45 27.81 90.68 28.05C88.92 28.29 86.76 28.41 84.21 28.41C81.66 28.41 79.51 28.29 77.74 28.05ZM66.22 4.57C62.23 7.61 60.24 12.41 60.24 18.96C60.24 25.51 62.22 30.37 66.19 33.41C70.16 36.45 76.16 37.97 84.2 37.97C92.24 37.97 98.2 36.45 102.19 33.41C106.18 30.37 108.17 25.56 108.17 18.96C108.17 12.36 106.17 7.61 102.17 4.57C98.17 1.53 92.18 0.01 84.21 0.01C76.24 0.01 70.21 1.53 66.22 4.57Z" fill="url(#paint0_linear_1316_3743)"/>
<defs>
<linearGradient id="paint0_linear_1316_3743" x1="-3.89797e-07" y1="49" x2="337" y2="-17.5" gradientUnits="userSpaceOnUse">
<stop stop-color="#3398E1"/>
<stop offset="0.0226226" stop-color="#4550ED"/>
<stop offset="0.16" stop-color="#722AEF"/>
<stop offset="0.529589" stop-color="#A333B3"/>
<stop offset="0.773724" stop-color="#C54377"/>
<stop offset="1" stop-color="#FB5F15"/>
</linearGradient>
</defs>
</svg>
