<svg width="132" height="196" viewBox="0 0 132 196" fill="none" xmlns="http://www.w3.org/2000/svg">
<path d="M23.4464 186H19.4864V157.68H23.4464V186ZM33.3058 167.04C33.3591 167.52 33.3991 168.067 33.4258 168.68C33.4524 169.267 33.4658 169.76 33.4658 170.16H33.5858C33.8258 169.653 34.1458 169.187 34.5458 168.76C34.9724 168.307 35.4524 167.92 35.9858 167.6C36.5191 167.253 37.1058 166.987 37.7458 166.8C38.3858 166.613 39.0524 166.52 39.7458 166.52C40.9724 166.52 42.0258 166.733 42.9058 167.16C43.7858 167.56 44.5191 168.107 45.1058 168.8C45.6924 169.493 46.1191 170.307 46.3858 171.24C46.6791 172.173 46.8258 173.173 46.8258 174.24V186H43.0658V175.48C43.0658 174.707 42.9991 173.973 42.8658 173.28C42.7591 172.587 42.5458 171.973 42.2258 171.44C41.9058 170.907 41.4658 170.48 40.9058 170.16C40.3458 169.84 39.6258 169.68 38.7458 169.68C37.2524 169.68 36.0258 170.253 35.0658 171.4C34.1324 172.52 33.6658 174.027 33.6658 175.92V186H29.9058V171.12C29.9058 170.613 29.8924 169.96 29.8658 169.16C29.8391 168.36 29.7991 167.653 29.7458 167.04H33.3058ZM61.867 186H57.787L50.067 167.04H54.227L59.787 181.96H59.867L65.467 167.04H69.467L61.867 186ZM80.0633 181.92H80.1433L85.3833 167.04H89.3833L80.1833 190.48C79.8633 191.28 79.5166 191.987 79.1433 192.6C78.7699 193.24 78.3299 193.773 77.8233 194.2C77.3166 194.653 76.7166 195 76.0233 195.24C75.3566 195.48 74.5566 195.6 73.6233 195.6C73.2233 195.6 72.8099 195.573 72.3833 195.52C71.9833 195.493 71.5699 195.427 71.1433 195.32L71.5033 192C72.1433 192.213 72.7699 192.32 73.3833 192.32C74.3699 192.32 75.1033 192.04 75.5833 191.48C76.0633 190.947 76.5033 190.173 76.9033 189.16L78.1033 186L69.9833 167.04H74.1833L80.0633 181.92ZM111.98 176.48C111.98 177.947 111.713 179.293 111.18 180.52C110.673 181.747 109.953 182.813 109.02 183.72C108.113 184.6 107.033 185.293 105.78 185.8C104.526 186.28 103.18 186.52 101.74 186.52C100.3 186.52 98.9529 186.28 97.6995 185.8C96.4462 185.293 95.3662 184.6 94.4595 183.72C93.5529 182.813 92.8329 181.747 92.2995 180.52C91.7929 179.293 91.5395 177.947 91.5395 176.48C91.5395 175.013 91.7929 173.68 92.2995 172.48C92.8329 171.253 93.5529 170.2 94.4595 169.32C95.3662 168.44 96.4462 167.76 97.6995 167.28C98.9529 166.773 100.3 166.52 101.74 166.52C103.18 166.52 104.526 166.773 105.78 167.28C107.033 167.76 108.113 168.44 109.02 169.32C109.953 170.2 110.673 171.253 111.18 172.48C111.713 173.68 111.98 175.013 111.98 176.48ZM108.06 176.48C108.06 175.573 107.913 174.707 107.62 173.88C107.353 173.053 106.953 172.333 106.42 171.72C105.886 171.08 105.22 170.573 104.42 170.2C103.646 169.827 102.753 169.64 101.74 169.64C100.726 169.64 99.8195 169.827 99.0195 170.2C98.2462 170.573 97.5929 171.08 97.0595 171.72C96.5262 172.333 96.1129 173.053 95.8195 173.88C95.5529 174.707 95.4195 175.573 95.4195 176.48C95.4195 177.387 95.5529 178.253 95.8195 179.08C96.1129 179.907 96.5262 180.64 97.0595 181.28C97.5929 181.92 98.2462 182.427 99.0195 182.8C99.8195 183.173 100.726 183.36 101.74 183.36C102.753 183.36 103.646 183.173 104.42 182.8C105.22 182.427 105.886 181.92 106.42 181.28C106.953 180.64 107.353 179.907 107.62 179.08C107.913 178.253 108.06 177.387 108.06 176.48Z" fill="black" fill-opacity="0.85098"/>
<circle cx="6" cy="36" r="6" fill="#FDC300"/>
<circle cx="6" cy="51" r="6" fill="#FF008F"/>
<rect y="60" width="12" height="12" fill="#FDC300"/>
<rect y="75" width="12" height="12" fill="#00E0D8"/>
<circle cx="6" cy="96" r="6" fill="#FF008F"/>
<rect y="105" width="12" height="12" fill="#FDC300"/>
<rect x="15" y="22.5" width="12" height="12" fill="#00E0D8"/>
<rect x="15" y="37.5" width="12" height="12" fill="#FDC300"/>
<circle cx="21" cy="58.5" r="6" fill="#00E0D8"/>
<circle cx="21" cy="73.5" r="6" fill="#FF008F"/>
<rect x="15" y="82.5" width="12" height="12" fill="#FDC300"/>
<circle cx="21" cy="103.5" r="6" fill="#00E0D8"/>
<rect x="15" y="112.5" width="12" height="12" fill="#FF008F"/>
<circle cx="36" cy="21" r="6" fill="#FDC300"/>
<rect x="30" y="30" width="12" height="12" fill="#FF008F"/>
<circle cx="36" cy="51" r="6" fill="#00E0D8"/>
<rect x="30" y="60" width="12" height="12" fill="#FF008F"/>
<rect x="30" y="75" width="12" height="12" fill="#00E0D8"/>
<circle cx="36" cy="96" r="6" fill="#FDC300"/>
<rect x="30" y="105" width="12" height="12" fill="#FF008F"/>
<circle cx="36" cy="126" r="6" fill="#FDC300"/>
<circle cx="51" cy="13.5" r="6" fill="#FF008F"/>
<rect x="45" y="22.5" width="12" height="12" fill="#00E0D8"/>
<circle cx="51" cy="43.5" r="6" fill="#FDC300"/>
<rect x="45" y="52.5" width="12" height="12" fill="#00E0D8"/>
<circle cx="51" cy="73.5" r="6" fill="#FDC300"/>
<rect x="45" y="82.5" width="12" height="12" fill="#FF008F"/>
<rect x="45" y="97.5" width="12" height="12" fill="#00E0D8"/>
<circle cx="51" cy="118.5" r="6" fill="#FDC300"/>
<rect x="45" y="127.5" width="12" height="12" fill="#00E0D8"/>
<rect x="60" width="12" height="12" fill="#00E0D8"/>
<circle cx="66" cy="21" r="6" fill="#FDC300"/>
<rect x="60" y="30" width="12" height="12" fill="#FDC300"/>
<rect x="60" y="45" width="12" height="12" fill="#FF008F"/>
<circle cx="66" cy="66" r="6" fill="#FDC300"/>
<circle cx="66" cy="81" r="6" fill="#00E0D8"/>
<rect x="60" y="90" width="12" height="12" fill="#FF008F"/>
<circle cx="66" cy="111" r="6" fill="#FDC300"/>
<rect x="60" y="120" width="12" height="12" fill="#FF008F"/>
<circle cx="66" cy="141" r="6" fill="#FDC300"/>
<rect x="75" y="7.5" width="12" height="12" fill="#00E0D8"/>
<circle cx="81" cy="28.5" r="6" fill="#FF008F"/>
<rect x="75" y="37.5" width="12" height="12" fill="#00E0D8"/>
<circle cx="81" cy="58.5" r="6" fill="#FF008F"/>
<rect x="75" y="67.5" width="12" height="12" fill="#FDC300"/>
<circle cx="81" cy="88.5" r="6" fill="#FF008F"/>
<rect x="75" y="97.5" width="12" height="12" fill="#00E0D8"/>
<rect x="75" y="112.5" width="12" height="12" fill="#FDC300"/>
<circle cx="81" cy="133.5" r="6" fill="#FF008F"/>
<circle cx="96" cy="21" r="6" fill="#FDC300"/>
<rect x="90" y="30" width="12" height="12" fill="#00E0D8"/>
<rect x="90" y="45" width="12" height="12" fill="#FF008F"/>
<circle cx="96" cy="66" r="6" fill="#FDC300"/>
<circle cx="96" cy="81" r="6" fill="#00E0D8"/>
<rect x="90" y="90" width="12" height="12" fill="#FDC300"/>
<circle cx="96" cy="111" r="6" fill="#FF008F"/>
<rect x="90" y="120" width="12" height="12" fill="#00E0D8"/>
<rect x="105" y="22.5" width="12" height="12" fill="#FF008F"/>
<circle cx="111" cy="43.5" r="6" fill="#FDC300"/>
<rect x="105" y="52.5" width="12" height="12" fill="#00E0D8"/>
<rect x="105" y="67.5" width="12" height="12" fill="#FDC300"/>
<circle cx="111" cy="88.5" r="6" fill="#00E0D8"/>
<rect x="105" y="97.5" width="12" height="12" fill="#FF008F"/>
<rect x="105" y="112.5" width="12" height="12" fill="#FDC300"/>
<rect x="120" y="30" width="12" height="12" fill="#00E0D8"/>
<rect x="120" y="45" width="12" height="12" fill="#FF008F"/>
<circle cx="126" cy="66" r="6" fill="#00E0D8"/>
<rect x="120" y="75" width="12" height="12" fill="#FF008F"/>
<rect x="120" y="90" width="12" height="12" fill="#FDC300"/>
<circle cx="126" cy="111" r="6" fill="#00E0D8"/>
</svg>
