<svg width="202" height="44" viewBox="0 0 202 44" fill="none" xmlns="http://www.w3.org/2000/svg">
<path d="M36.6667 19.5361C36.6667 29.1148 28.9063 36.8799 19.3333 36.8799C9.7604 36.8799 2 29.1148 2 19.5361M19.3333 24.2236C19.3333 14.6449 27.0937 6.87988 36.6667 6.87988C46.2396 6.87988 54 14.6449 54 24.2236" stroke="#E7217C" stroke-width="3.5" stroke-linecap="round"/>
<path d="M75.84 43.76C75.3067 43.76 74.8667 43.5867 74.52 43.24C74.1733 42.8933 74 42.4533 74 41.92V23.4C74.0267 21.32 74.52 19.44 75.48 17.76C76.4667 16.08 77.7867 14.76 79.44 13.8C81.0933 12.84 82.96 12.36 85.04 12.36C87.1467 12.36 89.0267 12.8533 90.68 13.84C92.36 14.8 93.68 16.12 94.64 17.8C95.6267 19.4533 96.12 21.3467 96.12 23.48C96.12 25.5867 95.6533 27.48 94.72 29.16C93.8133 30.84 92.5733 32.16 91 33.12C89.4267 34.08 87.6533 34.56 85.68 34.56C84 34.56 82.48 34.2133 81.12 33.52C79.76 32.8267 78.6133 31.8933 77.68 30.72V41.92C77.68 42.4533 77.5067 42.8933 77.16 43.24C76.84 43.5867 76.4 43.76 75.84 43.76ZM85.04 31.28C86.4533 31.28 87.72 30.9467 88.84 30.28C89.9867 29.5867 90.88 28.6533 91.52 27.48C92.1867 26.28 92.52 24.9467 92.52 23.48C92.52 21.9867 92.1867 20.6533 91.52 19.48C90.88 18.28 89.9867 17.3467 88.84 16.68C87.72 15.9867 86.4533 15.64 85.04 15.64C83.6267 15.64 82.3467 15.9867 81.2 16.68C80.08 17.3733 79.2 18.3067 78.56 19.48C77.92 20.6533 77.6 21.9867 77.6 23.48C77.6 24.9467 77.92 26.28 78.56 27.48C79.2 28.6533 80.08 29.5867 81.2 30.28C82.3467 30.9467 83.6267 31.28 85.04 31.28Z" fill="black"/>
<path d="M111.883 34.56C109.75 34.56 107.843 34.0933 106.163 33.16C104.51 32.2 103.203 30.8933 102.243 29.24C101.31 27.56 100.843 25.64 100.843 23.48C100.843 21.2933 101.31 19.3733 102.243 17.72C103.203 16.04 104.51 14.7333 106.163 13.8C107.843 12.84 109.75 12.36 111.883 12.36C114.016 12.36 115.91 12.84 117.563 13.8C119.243 14.7333 120.55 16.04 121.483 17.72C122.443 19.3733 122.936 21.2933 122.963 23.48C122.963 25.64 122.483 27.56 121.523 29.24C120.563 30.8933 119.256 32.2 117.603 33.16C115.95 34.0933 114.043 34.56 111.883 34.56ZM111.883 31.28C113.35 31.28 114.643 30.9467 115.763 30.28C116.883 29.6133 117.763 28.6933 118.403 27.52C119.043 26.3467 119.363 25 119.363 23.48C119.363 21.96 119.043 20.6133 118.403 19.44C117.763 18.24 116.883 17.3067 115.763 16.64C114.643 15.9733 113.35 15.64 111.883 15.64C110.443 15.64 109.15 15.9733 108.003 16.64C106.883 17.3067 106.003 18.24 105.363 19.44C104.723 20.6133 104.403 21.96 104.403 23.48C104.403 25 104.723 26.3467 105.363 27.52C106.003 28.6933 106.883 29.6133 108.003 30.28C109.15 30.9467 110.443 31.28 111.883 31.28Z" fill="black"/>
<path d="M137.314 35.2C135.128 35.2 133.421 34.56 132.194 33.28C130.968 31.9467 130.354 30.1333 130.354 27.84V16C130.354 15.4667 130.088 15.2 129.554 15.2H127.554C127.128 15.2 126.754 15.04 126.434 14.72C126.114 14.4 125.954 14.0267 125.954 13.6C125.954 13.1733 126.114 12.8 126.434 12.48C126.754 12.16 127.128 12 127.554 12H129.554C130.088 12 130.354 11.7333 130.354 11.2V3.76C130.354 3.17333 130.541 2.74667 130.914 2.48C131.288 2.16 131.688 2 132.114 2C132.594 2 133.021 2.16 133.394 2.48C133.768 2.74667 133.954 3.17333 133.954 3.76V11.2C133.954 11.7333 134.221 12 134.754 12H140.354C140.781 12 141.154 12.16 141.474 12.48C141.794 12.8 141.954 13.1733 141.954 13.6C141.954 14.0267 141.794 14.4 141.474 14.72C141.154 15.04 140.781 15.2 140.354 15.2H134.754C134.221 15.2 133.954 15.4667 133.954 16V27.6C133.954 30.3733 135.234 31.76 137.794 31.76C138.434 31.76 138.941 31.68 139.314 31.52C139.741 31.36 140.088 31.28 140.354 31.28C140.834 31.28 141.208 31.4667 141.474 31.84C141.794 32.2133 141.954 32.6133 141.954 33.04C141.954 33.8933 141.554 34.4267 140.754 34.64C140.221 34.8533 139.634 34.9867 138.994 35.04C138.408 35.1467 137.848 35.2 137.314 35.2Z" fill="black"/>
<path d="M148.552 35.2C148.019 35.2 147.565 35.0133 147.192 34.64C146.872 34.32 146.712 33.8933 146.712 33.36V1.76C146.712 1.17333 146.899 0.746665 147.272 0.479999C147.645 0.16 148.072 0 148.552 0C148.979 0 149.379 0.16 149.752 0.479999C150.125 0.746665 150.312 1.17333 150.312 1.76V33.36C150.312 33.8933 150.152 34.32 149.832 34.64C149.512 35.0133 149.085 35.2 148.552 35.2Z" fill="black"/>
<path d="M166.933 34.56C164.8 34.56 162.893 34.0933 161.213 33.16C159.56 32.2 158.253 30.8933 157.293 29.24C156.36 27.56 155.893 25.64 155.893 23.48C155.893 21.2933 156.36 19.3733 157.293 17.72C158.253 16.04 159.56 14.7333 161.213 13.8C162.893 12.84 164.8 12.36 166.933 12.36C169.066 12.36 170.96 12.84 172.613 13.8C174.293 14.7333 175.6 16.04 176.533 17.72C177.493 19.3733 177.986 21.2933 178.013 23.48C178.013 25.64 177.533 27.56 176.573 29.24C175.613 30.8933 174.306 32.2 172.653 33.16C171 34.0933 169.093 34.56 166.933 34.56ZM166.933 31.28C168.4 31.28 169.693 30.9467 170.813 30.28C171.933 29.6133 172.813 28.6933 173.453 27.52C174.093 26.3467 174.413 25 174.413 23.48C174.413 21.96 174.093 20.6133 173.453 19.44C172.813 18.24 171.933 17.3067 170.813 16.64C169.693 15.9733 168.4 15.64 166.933 15.64C165.493 15.64 164.2 15.9733 163.053 16.64C161.933 17.3067 161.053 18.24 160.413 19.44C159.773 20.6133 159.453 21.96 159.453 23.48C159.453 25 159.773 26.3467 160.413 27.52C161.053 28.6933 161.933 29.6133 163.053 30.28C164.2 30.9467 165.493 31.28 166.933 31.28Z" fill="black"/>
<path d="M193.644 34.56C191.538 34.56 189.658 34.08 188.004 33.12C186.351 32.1333 185.044 30.8133 184.084 29.16C183.151 27.48 182.684 25.5867 182.684 23.48C182.684 21.32 183.138 19.4 184.044 17.72C184.978 16.04 186.244 14.7333 187.844 13.8C189.444 12.84 191.298 12.36 193.404 12.36C194.978 12.36 196.431 12.6667 197.764 13.28C199.098 13.8933 200.284 14.8133 201.324 16.04C201.671 16.4133 201.791 16.8133 201.684 17.24C201.604 17.6667 201.338 18.04 200.884 18.36C200.564 18.6 200.191 18.68 199.764 18.6C199.338 18.52 198.964 18.2933 198.644 17.92C197.231 16.4 195.484 15.64 193.404 15.64C191.991 15.64 190.738 15.9733 189.644 16.64C188.578 17.3067 187.738 18.2267 187.124 19.4C186.538 20.5467 186.244 21.9067 186.244 23.48C186.244 24.9733 186.551 26.3067 187.164 27.48C187.804 28.6533 188.684 29.5867 189.804 30.28C190.924 30.9467 192.204 31.28 193.644 31.28C194.631 31.28 195.511 31.16 196.284 30.92C197.058 30.68 197.751 30.2933 198.364 29.76C198.738 29.44 199.124 29.2667 199.524 29.24C199.951 29.2133 200.324 29.3333 200.644 29.6C201.044 29.9467 201.271 30.3333 201.324 30.76C201.378 31.1867 201.231 31.56 200.884 31.88C198.964 33.6667 196.551 34.56 193.644 34.56Z" fill="black"/>
</svg>
