<svg width="80" height="60" viewBox="0 0 80 60" fill="none" xmlns="http://www.w3.org/2000/svg">
<path d="M40 17L32.9773 9.92893C28.8647 6.02369 22.197 6.02369 18.0844 9.92893C13.9719 13.8342 13.9719 20.1658 18.0844 24.0711C22.197 27.9763 28.8647 27.9763 32.9773 24.0711L40 17ZM40 17L47.0227 24.0711C51.1353 27.9763 57.803 27.9763 61.9156 24.0711C66.0281 20.1658 66.0281 13.8342 61.9156 9.92893C57.803 6.02369 51.1353 6.02369 47.0227 9.92893L40 17Z" stroke="#002D6A" stroke-width="2"/>
<path d="M30.5 4.12432C33.1568 2.16082 36.4428 1 40 1C43.5572 1 46.8432 2.16082 49.5 4.12432M25.3754 10.5C24.4914 12.4862 24 14.6857 24 17C24 19.3143 24.4914 21.5138 25.3754 23.5M30.5 29.8757C33.1568 31.8392 36.4428 33 40 33C43.5572 33 46.8432 31.8392 49.5 29.8757M54.6246 23.5C55.5086 21.5138 56 19.3143 56 17C56 14.6857 55.5086 12.4862 54.6246 10.5" stroke="#002D6A" stroke-width="2" stroke-linecap="round"/>
<path d="M17.5478 59H9.22781C8.14781 59 7.15448 58.8267 6.24781 58.48C5.35448 58.1333 4.58115 57.6467 3.92781 57.02C3.27448 56.3933 2.76781 55.6333 2.40781 54.74C2.04781 53.8467 1.86781 52.8467 1.86781 51.74C1.86781 50.6733 2.05448 49.7 2.42781 48.82C2.80115 47.9267 3.31448 47.16 3.96781 46.52C4.62115 45.88 5.39448 45.38 6.28781 45.02C7.19448 44.66 8.18115 44.48 9.24781 44.48C10.3011 44.48 11.2745 44.66 12.1678 45.02C13.0611 45.38 13.8345 45.88 14.4878 46.52C15.1411 47.16 15.6478 47.9267 16.0078 48.82C16.3811 49.7 16.5678 50.6733 16.5678 51.74C16.5678 53.0067 16.3011 54.1133 15.7678 55.06C15.2345 56.0067 14.5278 56.7533 13.6478 57.3V57.34H17.5478V59ZM4.00781 51.74C4.00781 52.5133 4.12781 53.24 4.36781 53.92C4.62115 54.5867 4.97448 55.1667 5.42781 55.66C5.88115 56.1533 6.42781 56.5467 7.06781 56.84C7.70781 57.12 8.42781 57.26 9.22781 57.26C10.0011 57.26 10.7078 57.12 11.3478 56.84C12.0011 56.5467 12.5545 56.1533 13.0078 55.66C13.4611 55.1667 13.8145 54.5867 14.0678 53.92C14.3211 53.24 14.4478 52.5133 14.4478 51.74C14.4478 50.98 14.3278 50.2667 14.0878 49.6C13.8478 48.9333 13.5011 48.3533 13.0478 47.86C12.5945 47.3533 12.0478 46.9533 11.4078 46.66C10.7678 46.3667 10.0478 46.22 9.24781 46.22C8.44781 46.22 7.72781 46.3667 7.08781 46.66C6.44781 46.9533 5.89448 47.3533 5.42781 47.86C4.97448 48.3533 4.62115 48.9333 4.36781 49.6C4.12781 50.2667 4.00781 50.98 4.00781 51.74ZM25.9619 59C25.9352 58.76 25.9152 58.4933 25.9019 58.2C25.8885 57.8933 25.8819 57.64 25.8819 57.44H25.8419C25.6019 57.9467 25.1952 58.38 24.6219 58.74C24.0619 59.0867 23.4352 59.26 22.7419 59.26C22.1285 59.26 21.5952 59.16 21.1419 58.96C20.7019 58.76 20.3352 58.4867 20.0419 58.14C19.7619 57.78 19.5485 57.3667 19.4019 56.9C19.2685 56.4333 19.2019 55.9333 19.2019 55.4V49.52H21.0819V54.76C21.0819 55.1467 21.1085 55.52 21.1619 55.88C21.2285 56.2267 21.3419 56.5333 21.5019 56.8C21.6619 57.0667 21.8819 57.28 22.1619 57.44C22.4419 57.6 22.8019 57.68 23.2419 57.68C24.0019 57.68 24.6152 57.4 25.0819 56.84C25.5485 56.2667 25.7819 55.5067 25.7819 54.56V49.52H27.6619V56.96C27.6619 57.2133 27.6685 57.54 27.6819 57.94C27.6952 58.34 27.7152 58.6933 27.7419 59H25.9619ZM32.7025 59H30.8225V49.52H32.7025V59ZM33.0225 46.1C33.0225 46.4467 32.8958 46.7333 32.6425 46.96C32.4025 47.1867 32.1092 47.3 31.7625 47.3C31.4158 47.3 31.1225 47.1867 30.8825 46.96C30.6425 46.72 30.5225 46.4333 30.5225 46.1C30.5225 45.7533 30.6425 45.4667 30.8825 45.24C31.1225 45 31.4158 44.88 31.7625 44.88C32.1092 44.88 32.4025 45 32.6425 45.24C32.8958 45.4667 33.0225 45.7533 33.0225 46.1ZM43.4183 57.5C43.0583 58.0733 42.5649 58.5133 41.9383 58.82C41.3249 59.1133 40.6783 59.26 39.9983 59.26C39.2649 59.26 38.6049 59.1333 38.0183 58.88C37.4316 58.6133 36.9316 58.2533 36.5183 57.8C36.1049 57.3467 35.7849 56.8133 35.5583 56.2C35.3316 55.5867 35.2183 54.9333 35.2183 54.24C35.2183 53.5467 35.3316 52.9 35.5583 52.3C35.7849 51.6867 36.1049 51.1533 36.5183 50.7C36.9449 50.2467 37.4516 49.8933 38.0383 49.64C38.6249 49.3867 39.2716 49.26 39.9783 49.26C40.7516 49.26 41.4249 49.4267 41.9983 49.76C42.5716 50.08 43.0249 50.4733 43.3583 50.94H43.3983V43.88H45.2783V59H43.4583V57.5H43.4183ZM37.1783 54.24C37.1783 54.68 37.2449 55.1067 37.3783 55.52C37.5116 55.9333 37.7116 56.3 37.9783 56.62C38.2449 56.94 38.5716 57.2 38.9583 57.4C39.3449 57.5867 39.7983 57.68 40.3183 57.68C40.7983 57.68 41.2316 57.5867 41.6183 57.4C42.0183 57.2133 42.3583 56.9667 42.6383 56.66C42.9183 56.34 43.1316 55.9733 43.2783 55.56C43.4383 55.1467 43.5183 54.7133 43.5183 54.26C43.5183 53.8067 43.4383 53.3733 43.2783 52.96C43.1316 52.5467 42.9183 52.18 42.6383 51.86C42.3583 51.54 42.0183 51.2867 41.6183 51.1C41.2316 50.9133 40.7983 50.82 40.3183 50.82C39.7983 50.82 39.3449 50.9133 38.9583 51.1C38.5716 51.2867 38.2449 51.54 37.9783 51.86C37.7116 52.18 37.5116 52.5467 37.3783 52.96C37.2449 53.3733 37.1783 53.8 37.1783 54.24ZM55.3736 53.42C55.3603 53.0467 55.2936 52.7 55.1736 52.38C55.0669 52.0467 54.9003 51.76 54.6736 51.52C54.4603 51.28 54.1869 51.0933 53.8536 50.96C53.5336 50.8133 53.1536 50.74 52.7136 50.74C52.3136 50.74 51.9336 50.8133 51.5736 50.96C51.2269 51.0933 50.9203 51.28 50.6536 51.52C50.4003 51.76 50.1869 52.0467 50.0136 52.38C49.8536 52.7 49.7603 53.0467 49.7336 53.42H55.3736ZM57.2736 54.18C57.2736 54.2867 57.2736 54.3933 57.2736 54.5C57.2736 54.6067 57.2669 54.7133 57.2536 54.82H49.7336C49.7469 55.22 49.8336 55.6 49.9936 55.96C50.1669 56.3067 50.3936 56.6133 50.6736 56.88C50.9536 57.1333 51.2736 57.3333 51.6336 57.48C52.0069 57.6267 52.4003 57.7 52.8136 57.7C53.4536 57.7 54.0069 57.56 54.4736 57.28C54.9403 57 55.3069 56.66 55.5736 56.26L56.8936 57.32C56.3869 57.9867 55.7869 58.48 55.0936 58.8C54.4136 59.1067 53.6536 59.26 52.8136 59.26C52.0936 59.26 51.4269 59.14 50.8136 58.9C50.2003 58.66 49.6736 58.3267 49.2336 57.9C48.7936 57.46 48.4469 56.9333 48.1936 56.32C47.9403 55.7067 47.8136 55.0267 47.8136 54.28C47.8136 53.5467 47.9336 52.8733 48.1736 52.26C48.4269 51.6333 48.7736 51.1 49.2136 50.66C49.6536 50.22 50.1736 49.88 50.7736 49.64C51.3736 49.3867 52.0203 49.26 52.7136 49.26C53.4069 49.26 54.0336 49.3733 54.5936 49.6C55.1669 49.8267 55.6469 50.1533 56.0336 50.58C56.4336 51.0067 56.7403 51.5267 56.9536 52.14C57.1669 52.74 57.2736 53.42 57.2736 54.18ZM69.3784 54.24C69.3784 54.9733 69.2451 55.6467 68.9784 56.26C68.7251 56.8733 68.3651 57.4067 67.8984 57.86C67.4451 58.3 66.9051 58.6467 66.2784 58.9C65.6518 59.14 64.9784 59.26 64.2584 59.26C63.5384 59.26 62.8651 59.14 62.2384 58.9C61.6118 58.6467 61.0718 58.3 60.6184 57.86C60.1651 57.4067 59.8051 56.8733 59.5384 56.26C59.2851 55.6467 59.1584 54.9733 59.1584 54.24C59.1584 53.5067 59.2851 52.84 59.5384 52.24C59.8051 51.6267 60.1651 51.1 60.6184 50.66C61.0718 50.22 61.6118 49.88 62.2384 49.64C62.8651 49.3867 63.5384 49.26 64.2584 49.26C64.9784 49.26 65.6518 49.3867 66.2784 49.64C66.9051 49.88 67.4451 50.22 67.8984 50.66C68.3651 51.1 68.7251 51.6267 68.9784 52.24C69.2451 52.84 69.3784 53.5067 69.3784 54.24ZM67.4184 54.24C67.4184 53.7867 67.3451 53.3533 67.1984 52.94C67.0651 52.5267 66.8651 52.1667 66.5984 51.86C66.3318 51.54 65.9984 51.2867 65.5984 51.1C65.2118 50.9133 64.7651 50.82 64.2584 50.82C63.7518 50.82 63.2984 50.9133 62.8984 51.1C62.5118 51.2867 62.1851 51.54 61.9184 51.86C61.6518 52.1667 61.4451 52.5267 61.2984 52.94C61.1651 53.3533 61.0984 53.7867 61.0984 54.24C61.0984 54.6933 61.1651 55.1267 61.2984 55.54C61.4451 55.9533 61.6518 56.32 61.9184 56.64C62.1851 56.96 62.5118 57.2133 62.8984 57.4C63.2984 57.5867 63.7518 57.68 64.2584 57.68C64.7651 57.68 65.2118 57.5867 65.5984 57.4C65.9984 57.2133 66.3318 56.96 66.5984 56.64C66.8651 56.32 67.0651 55.9533 67.1984 55.54C67.3451 55.1267 67.4184 54.6933 67.4184 54.24ZM76.9855 51.92C76.7721 51.5733 76.4721 51.2933 76.0855 51.08C75.6988 50.8533 75.2655 50.74 74.7855 50.74C74.5721 50.74 74.3588 50.7667 74.1455 50.82C73.9321 50.86 73.7388 50.9333 73.5655 51.04C73.4055 51.1333 73.2721 51.26 73.1655 51.42C73.0721 51.5667 73.0255 51.7533 73.0255 51.98C73.0255 52.38 73.2055 52.68 73.5655 52.88C73.9255 53.0667 74.4655 53.24 75.1855 53.4C75.6388 53.5067 76.0588 53.6333 76.4455 53.78C76.8321 53.9267 77.1655 54.1133 77.4455 54.34C77.7388 54.5533 77.9655 54.8133 78.1255 55.12C78.2855 55.4267 78.3655 55.7867 78.3655 56.2C78.3655 56.76 78.2588 57.2333 78.0455 57.62C77.8321 58.0067 77.5455 58.3267 77.1855 58.58C76.8388 58.82 76.4388 58.9933 75.9855 59.1C75.5321 59.2067 75.0655 59.26 74.5855 59.26C73.8655 59.26 73.1588 59.12 72.4655 58.84C71.7855 58.56 71.2188 58.1333 70.7655 57.56L72.1055 56.42C72.3588 56.7933 72.7055 57.1067 73.1455 57.36C73.5988 57.6133 74.0921 57.74 74.6255 57.74C74.8655 57.74 75.0921 57.72 75.3055 57.68C75.5321 57.6267 75.7321 57.5467 75.9055 57.44C76.0921 57.3333 76.2388 57.1933 76.3455 57.02C76.4521 56.8467 76.5055 56.6267 76.5055 56.36C76.5055 55.92 76.2921 55.5933 75.8655 55.38C75.4521 55.1667 74.8388 54.9667 74.0255 54.78C73.7055 54.7 73.3788 54.6067 73.0455 54.5C72.7255 54.38 72.4321 54.22 72.1655 54.02C71.8988 53.82 71.6788 53.5733 71.5055 53.28C71.3455 52.9733 71.2655 52.6 71.2655 52.16C71.2655 51.6533 71.3655 51.22 71.5655 50.86C71.7788 50.4867 72.0521 50.1867 72.3855 49.96C72.7188 49.72 73.0988 49.5467 73.5255 49.44C73.9521 49.32 74.3921 49.26 74.8455 49.26C75.5255 49.26 76.1788 49.3933 76.8055 49.66C77.4455 49.9267 77.9388 50.3133 78.2855 50.82L76.9855 51.92Z" fill="#002D6A"/>
</svg>
