<svg width="405" height="187" viewBox="0 0 405 187" fill="none" xmlns="http://www.w3.org/2000/svg">
<g clip-path="url(#clip0_2214_175)">
<g clip-path="url(#clip1_2214_175)">
<mask id="mask0_2214_175" style="mask-type:alpha" maskUnits="userSpaceOnUse" x="-24" y="-21" width="170" height="224">
<path fill-rule="evenodd" clip-rule="evenodd" d="M-24 -21H146V203H-24V-21ZM57.5 130C78.2107 130 95 113.211 95 92.5C95 71.7893 78.2107 55 57.5 55C36.7893 55 20 71.7893 20 92.5C20 113.211 36.7893 130 57.5 130ZM93 92.5C93 112.106 77.1061 128 57.5 128C37.8939 128 22 112.106 22 92.5C22 72.8939 37.8939 57 57.5 57C77.1061 57 93 72.8939 93 92.5ZM86 92.5C86 108.24 73.2401 121 57.5 121C41.7599 121 29 108.24 29 92.5C29 76.7599 41.7599 64 57.5 64C73.2401 64 86 76.7599 86 92.5ZM84 92.5C84 107.136 72.1355 119 57.5 119C42.8645 119 31 107.136 31 92.5C31 77.8645 42.8645 66 57.5 66C72.1355 66 84 77.8645 84 92.5Z" fill="white"/>
</mask>
<g mask="url(#mask0_2214_175)">
<g clip-path="url(#clip2_2214_175)">
<path d="M18.6278 108.39L98.8153 86.9035L77.3291 167.091L60.9767 125.168L60.8571 124.862L60.5505 124.742L18.6278 108.39Z" stroke="#E22C21" stroke-width="1.5"/>
<path d="M85.7338 99.985L63.3194 183.637L46.1358 139.583L2.0822 122.399L85.7338 99.985Z" fill="#E22C21"/>
</g>
<g clip-path="url(#clip3_2214_175)">
<path d="M96.1479 76.3859L15.9603 97.8721L37.4465 17.6846L53.7989 59.6073L53.9185 59.9139L54.2251 60.0335L96.1479 76.3859Z" stroke="#2A4B7D" stroke-width="1.5"/>
<path d="M29.0418 84.7907L51.4562 1.13905L68.6398 45.1927L112.693 62.3763L29.0418 84.7907Z" fill="#2A4B7D"/>
</g>
</g>
<circle cx="57.5" cy="92.5" r="32" stroke="black" stroke-width="7"/>
</g>
<mask id="path-7-outside-1_2214_175" maskUnits="userSpaceOnUse" x="103.5" y="69" width="301" height="60" fill="black">
<rect fill="white" x="103.5" y="69" width="301" height="60"/>
<path d="M124.82 71C129.993 71 134.287 72.7333 137.7 76.2C141.167 79.6133 142.9 83.88 142.9 89C142.9 94.0667 141.167 98.3333 137.7 101.8C134.287 105.267 129.993 107 124.82 107H111.94V127H104.5V71H124.82ZM124.82 100.04C127.913 100.04 130.473 99 132.5 96.92C134.527 94.7867 135.54 92.1467 135.54 89C135.54 85.8 134.527 83.16 132.5 81.08C130.473 79 127.913 77.96 124.82 77.96H111.94V100.04H124.82ZM159.128 119.96H185.128V127H151.688V71H184.728V78.04H159.128V95.24H182.728V102.2H159.128V119.96ZM228.909 71H236.349V127H230.349L201.549 85.16V127H194.109V71H200.109L228.909 112.76V71ZM265.549 128.04C260.322 128.04 255.842 126.813 252.109 124.36C248.429 121.907 245.842 118.547 244.349 114.28L250.749 110.6C252.935 117.373 257.922 120.76 265.709 120.76C269.549 120.76 272.482 119.987 274.509 118.44C276.535 116.84 277.549 114.733 277.549 112.12C277.549 109.453 276.535 107.453 274.509 106.12C272.482 104.787 269.095 103.373 264.349 101.88C262.002 101.133 260.215 100.547 258.989 100.12C257.762 99.64 256.215 98.9467 254.349 98.04C252.535 97.08 251.175 96.12 250.269 95.16C249.362 94.1467 248.535 92.84 247.789 91.24C247.095 89.64 246.749 87.8267 246.749 85.8C246.749 80.9467 248.455 77.1067 251.869 74.28C255.282 71.4 259.442 69.96 264.349 69.96C268.775 69.96 272.615 71.08 275.869 73.32C279.175 75.56 281.655 78.52 283.309 82.2L277.069 85.8C274.669 80.04 270.429 77.16 264.349 77.16C261.309 77.16 258.855 77.9067 256.989 79.4C255.122 80.8933 254.189 82.92 254.189 85.48C254.189 87.9333 255.069 89.8 256.829 91.08C258.589 92.36 261.629 93.6933 265.949 95.08C267.495 95.56 268.589 95.9067 269.229 96.12C269.869 96.3333 270.855 96.7067 272.189 97.24C273.575 97.7733 274.589 98.2 275.229 98.52C275.869 98.84 276.722 99.2933 277.789 99.88C278.909 100.467 279.735 101.027 280.269 101.56C280.802 102.093 281.415 102.76 282.109 103.56C282.855 104.307 283.389 105.08 283.709 105.88C284.029 106.68 284.295 107.613 284.509 108.68C284.775 109.693 284.909 110.787 284.909 111.96C284.909 116.867 283.122 120.787 279.549 123.72C275.975 126.6 271.309 128.04 265.549 128.04ZM293.328 71H300.768V127H293.328V71ZM334.621 71C342.248 71 348.568 73.72 353.581 79.16C358.648 84.5467 361.181 91.16 361.181 99C361.181 106.84 358.648 113.48 353.581 118.92C348.568 124.307 342.248 127 334.621 127H312.781V71H334.621ZM334.621 119.96C340.328 119.96 344.995 117.96 348.621 113.96C352.248 109.96 354.061 104.973 354.061 99C354.061 93.0267 352.248 88.04 348.621 84.04C344.995 80.04 340.328 78.04 334.621 78.04H320.221V119.96H334.621ZM377.643 119.96H403.643V127H370.203V71H403.243V78.04H377.643V95.24H401.243V102.2H377.643V119.96Z"/>
</mask>
<path d="M124.82 71C129.993 71 134.287 72.7333 137.7 76.2C141.167 79.6133 142.9 83.88 142.9 89C142.9 94.0667 141.167 98.3333 137.7 101.8C134.287 105.267 129.993 107 124.82 107H111.94V127H104.5V71H124.82ZM124.82 100.04C127.913 100.04 130.473 99 132.5 96.92C134.527 94.7867 135.54 92.1467 135.54 89C135.54 85.8 134.527 83.16 132.5 81.08C130.473 79 127.913 77.96 124.82 77.96H111.94V100.04H124.82ZM159.128 119.96H185.128V127H151.688V71H184.728V78.04H159.128V95.24H182.728V102.2H159.128V119.96ZM228.909 71H236.349V127H230.349L201.549 85.16V127H194.109V71H200.109L228.909 112.76V71ZM265.549 128.04C260.322 128.04 255.842 126.813 252.109 124.36C248.429 121.907 245.842 118.547 244.349 114.28L250.749 110.6C252.935 117.373 257.922 120.76 265.709 120.76C269.549 120.76 272.482 119.987 274.509 118.44C276.535 116.84 277.549 114.733 277.549 112.12C277.549 109.453 276.535 107.453 274.509 106.12C272.482 104.787 269.095 103.373 264.349 101.88C262.002 101.133 260.215 100.547 258.989 100.12C257.762 99.64 256.215 98.9467 254.349 98.04C252.535 97.08 251.175 96.12 250.269 95.16C249.362 94.1467 248.535 92.84 247.789 91.24C247.095 89.64 246.749 87.8267 246.749 85.8C246.749 80.9467 248.455 77.1067 251.869 74.28C255.282 71.4 259.442 69.96 264.349 69.96C268.775 69.96 272.615 71.08 275.869 73.32C279.175 75.56 281.655 78.52 283.309 82.2L277.069 85.8C274.669 80.04 270.429 77.16 264.349 77.16C261.309 77.16 258.855 77.9067 256.989 79.4C255.122 80.8933 254.189 82.92 254.189 85.48C254.189 87.9333 255.069 89.8 256.829 91.08C258.589 92.36 261.629 93.6933 265.949 95.08C267.495 95.56 268.589 95.9067 269.229 96.12C269.869 96.3333 270.855 96.7067 272.189 97.24C273.575 97.7733 274.589 98.2 275.229 98.52C275.869 98.84 276.722 99.2933 277.789 99.88C278.909 100.467 279.735 101.027 280.269 101.56C280.802 102.093 281.415 102.76 282.109 103.56C282.855 104.307 283.389 105.08 283.709 105.88C284.029 106.68 284.295 107.613 284.509 108.68C284.775 109.693 284.909 110.787 284.909 111.96C284.909 116.867 283.122 120.787 279.549 123.72C275.975 126.6 271.309 128.04 265.549 128.04ZM293.328 71H300.768V127H293.328V71ZM334.621 71C342.248 71 348.568 73.72 353.581 79.16C358.648 84.5467 361.181 91.16 361.181 99C361.181 106.84 358.648 113.48 353.581 118.92C348.568 124.307 342.248 127 334.621 127H312.781V71H334.621ZM334.621 119.96C340.328 119.96 344.995 117.96 348.621 113.96C352.248 109.96 354.061 104.973 354.061 99C354.061 93.0267 352.248 88.04 348.621 84.04C344.995 80.04 340.328 78.04 334.621 78.04H320.221V119.96H334.621ZM377.643 119.96H403.643V127H370.203V71H403.243V78.04H377.643V95.24H401.243V102.2H377.643V119.96Z" fill="black"/>
<path d="M137.7 76.2L137.344 76.5508L137.349 76.5563L137.7 76.2ZM137.7 101.8L137.346 101.446L137.344 101.449L137.7 101.8ZM111.94 107V106.5H111.44V107H111.94ZM111.94 127V127.5H112.44V127H111.94ZM104.5 127H104V127.5H104.5V127ZM104.5 71V70.5H104V71H104.5ZM132.5 96.92L132.858 97.269L132.863 97.2644L132.5 96.92ZM132.5 81.08L132.142 81.4289L132.142 81.4289L132.5 81.08ZM111.94 77.96V77.46H111.44V77.96H111.94ZM111.94 100.04H111.44V100.54H111.94V100.04ZM124.82 71.5C129.869 71.5 134.031 73.1861 137.344 76.5508L138.056 75.8492C134.543 72.2806 130.118 70.5 124.82 70.5V71.5ZM137.349 76.5563C140.715 79.8703 142.4 84.0061 142.4 89H143.4C143.4 83.7539 141.618 79.3564 138.051 75.8437L137.349 76.5563ZM142.4 89C142.4 93.939 140.716 98.077 137.346 101.446L138.054 102.154C141.617 98.5897 143.4 94.1943 143.4 89H142.4ZM137.344 101.449C134.031 104.814 129.869 106.5 124.82 106.5V107.5C130.118 107.5 134.543 105.719 138.056 102.151L137.344 101.449ZM124.82 106.5H111.94V107.5H124.82V106.5ZM111.44 107V127H112.44V107H111.44ZM111.94 126.5H104.5V127.5H111.94V126.5ZM105 127V71H104V127H105ZM104.5 71.5H124.82V70.5H104.5V71.5ZM124.82 100.54C128.038 100.54 130.731 99.4523 132.858 97.2689L132.142 96.5711C130.216 98.5477 127.788 99.54 124.82 99.54V100.54ZM132.863 97.2644C134.984 95.0313 136.04 92.2651 136.04 89H135.04C135.04 92.0283 134.069 94.5421 132.138 96.5756L132.863 97.2644ZM136.04 89C136.04 85.6842 134.985 82.9143 132.858 80.7311L132.142 81.4289C134.068 83.4057 135.04 85.9158 135.04 89H136.04ZM132.858 80.7311C130.731 78.5477 128.038 77.46 124.82 77.46V78.46C127.788 78.46 130.216 79.4523 132.142 81.4289L132.858 80.7311ZM124.82 77.46H111.94V78.46H124.82V77.46ZM111.44 77.96V100.04H112.44V77.96H111.44ZM111.94 100.54H124.82V99.54H111.94V100.54ZM159.128 119.96H158.628V120.46H159.128V119.96ZM185.128 119.96H185.628V119.46H185.128V119.96ZM185.128 127V127.5H185.628V127H185.128ZM151.688 127H151.188V127.5H151.688V127ZM151.688 71V70.5H151.188V71H151.688ZM184.728 71H185.228V70.5H184.728V71ZM184.728 78.04V78.54H185.228V78.04H184.728ZM159.128 78.04V77.54H158.628V78.04H159.128ZM159.128 95.24H158.628V95.74H159.128V95.24ZM182.728 95.24H183.228V94.74H182.728V95.24ZM182.728 102.2V102.7H183.228V102.2H182.728ZM159.128 102.2V101.7H158.628V102.2H159.128ZM159.128 120.46H185.128V119.46H159.128V120.46ZM184.628 119.96V127H185.628V119.96H184.628ZM185.128 126.5H151.688V127.5H185.128V126.5ZM152.188 127V71H151.188V127H152.188ZM151.688 71.5H184.728V70.5H151.688V71.5ZM184.228 71V78.04H185.228V71H184.228ZM184.728 77.54H159.128V78.54H184.728V77.54ZM158.628 78.04V95.24H159.628V78.04H158.628ZM159.128 95.74H182.728V94.74H159.128V95.74ZM182.228 95.24V102.2H183.228V95.24H182.228ZM182.728 101.7H159.128V102.7H182.728V101.7ZM158.628 102.2V119.96H159.628V102.2H158.628ZM228.909 71V70.5H228.409V71H228.909ZM236.349 71H236.849V70.5H236.349V71ZM236.349 127V127.5H236.849V127H236.349ZM230.349 127L229.938 127.283L230.087 127.5H230.349V127ZM201.549 85.16L201.961 84.8765L201.049 83.5518V85.16H201.549ZM201.549 127V127.5H202.049V127H201.549ZM194.109 127H193.609V127.5H194.109V127ZM194.109 71V70.5H193.609V71H194.109ZM200.109 71L200.521 70.7161L200.372 70.5H200.109V71ZM228.909 112.76L228.498 113.044L229.409 114.366V112.76H228.909ZM228.909 71.5H236.349V70.5H228.909V71.5ZM235.849 71V127H236.849V71H235.849ZM236.349 126.5H230.349V127.5H236.349V126.5ZM230.761 126.717L201.961 84.8765L201.138 85.4435L229.938 127.283L230.761 126.717ZM201.049 85.16V127H202.049V85.16H201.049ZM201.549 126.5H194.109V127.5H201.549V126.5ZM194.609 127V71H193.609V127H194.609ZM194.109 71.5H200.109V70.5H194.109V71.5ZM199.698 71.2839L228.498 113.044L229.321 112.476L200.521 70.7161L199.698 71.2839ZM229.409 112.76V71H228.409V112.76H229.409ZM252.109 124.36L251.831 124.776L251.834 124.778L252.109 124.36ZM244.349 114.28L244.1 113.847L243.74 114.053L243.877 114.445L244.349 114.28ZM250.749 110.6L251.225 110.446L251.035 109.859L250.5 110.167L250.749 110.6ZM274.509 118.44L274.812 118.838L274.819 118.832L274.509 118.44ZM274.509 106.12L274.234 106.538L274.234 106.538L274.509 106.12ZM264.349 101.88L264.197 102.356L264.199 102.357L264.349 101.88ZM258.989 100.12L258.807 100.586L258.815 100.589L258.824 100.592L258.989 100.12ZM254.349 98.04L254.115 98.4819L254.122 98.486L254.13 98.4898L254.349 98.04ZM250.269 95.16L249.896 95.4935L249.905 95.5033L250.269 95.16ZM247.789 91.24L247.33 91.4389L247.336 91.4514L247.789 91.24ZM251.869 74.28L252.188 74.6651L252.191 74.6621L251.869 74.28ZM275.869 73.32L275.585 73.7318L275.588 73.734L275.869 73.32ZM283.309 82.2L283.559 82.6331L283.95 82.4073L283.765 81.9951L283.309 82.2ZM277.069 85.8L276.607 85.9923L276.826 86.5173L277.319 86.2331L277.069 85.8ZM256.989 79.4L256.676 79.0096L256.676 79.0096L256.989 79.4ZM256.829 91.08L257.123 90.6756L257.123 90.6756L256.829 91.08ZM265.949 95.08L265.796 95.5561L265.801 95.5575L265.949 95.08ZM269.229 96.12L269.071 96.5943L269.071 96.5943L269.229 96.12ZM272.189 97.24L272.003 97.7043L272.009 97.7067L272.189 97.24ZM275.229 98.52L275.005 98.9672L275.005 98.9672L275.229 98.52ZM277.789 99.88L277.548 100.318L277.557 100.323L277.789 99.88ZM280.269 101.56L279.915 101.914L279.915 101.914L280.269 101.56ZM282.109 103.56L281.731 103.887L281.743 103.901L281.755 103.914L282.109 103.56ZM283.709 105.88L283.245 106.066L283.245 106.066L283.709 105.88ZM284.509 108.68L284.018 108.778L284.021 108.793L284.025 108.807L284.509 108.68ZM279.549 123.72L279.863 124.109L279.866 124.106L279.549 123.72ZM265.549 127.54C260.403 127.54 256.022 126.333 252.383 123.942L251.834 124.778C255.662 127.293 260.241 128.54 265.549 128.54V127.54ZM252.386 123.944C248.799 121.552 246.279 118.281 244.821 114.115L243.877 114.445C245.405 118.812 248.059 122.261 251.831 124.776L252.386 123.944ZM244.598 114.713L250.998 111.033L250.5 110.167L244.1 113.847L244.598 114.713ZM250.273 110.754C251.394 114.226 253.246 116.867 255.848 118.634C258.445 120.398 261.744 121.26 265.709 121.26V120.26C261.887 120.26 258.799 119.429 256.41 117.806C254.024 116.186 252.29 113.747 251.225 110.446L250.273 110.754ZM265.709 121.26C269.606 121.26 272.664 120.477 274.812 118.837L274.205 118.043C272.3 119.497 269.492 120.26 265.709 120.26V121.26ZM274.819 118.832C276.967 117.136 278.049 114.884 278.049 112.12H277.049C277.049 114.582 276.104 116.544 274.199 118.048L274.819 118.832ZM278.049 112.12C278.049 109.305 276.967 107.138 274.784 105.702L274.234 106.538C276.104 107.768 277.049 109.602 277.049 112.12H278.049ZM274.784 105.702C272.696 104.329 269.253 102.899 264.499 101.403L264.199 102.357C268.937 103.848 272.268 105.244 274.234 106.538L274.784 105.702ZM264.5 101.404C262.155 100.657 260.373 100.072 259.153 99.6477L258.824 100.592C260.058 101.021 261.849 101.609 264.197 102.356L264.5 101.404ZM259.171 99.6544C257.961 99.1811 256.428 98.494 254.567 97.5902L254.13 98.4898C256.003 99.3993 257.563 100.099 258.807 100.586L259.171 99.6544ZM254.583 97.5981C252.794 96.6511 251.487 95.7213 250.632 94.8167L249.905 95.5033C250.864 96.5187 252.277 97.5089 254.115 98.4819L254.583 97.5981ZM250.641 94.8266C249.775 93.8588 248.974 92.5967 248.242 91.0286L247.336 91.4514C248.097 93.0833 248.949 94.4346 249.896 95.4934L250.641 94.8266ZM248.248 91.0412C247.585 89.5133 247.249 87.7693 247.249 85.8H246.249C246.249 87.8841 246.605 89.7667 247.33 91.4388L248.248 91.0412ZM247.249 85.8C247.249 81.0795 248.901 77.387 252.188 74.6651L251.55 73.8949C248.01 76.8264 246.249 80.8138 246.249 85.8H247.249ZM252.191 74.6621C255.505 71.8659 259.548 70.46 264.349 70.46V69.46C259.337 69.46 255.059 70.9341 251.546 73.8979L252.191 74.6621ZM264.349 70.46C268.687 70.46 272.425 71.5561 275.585 73.7318L276.152 72.9082C272.806 70.6039 268.864 69.46 264.349 69.46V70.46ZM275.588 73.734C278.817 75.9214 281.237 78.8086 282.853 82.4049L283.765 81.9951C282.074 78.2314 279.533 75.1986 276.149 72.906L275.588 73.734ZM283.059 81.7669L276.819 85.3669L277.319 86.2331L283.559 82.6331L283.059 81.7669ZM277.53 85.6077C276.301 82.6576 274.586 80.4119 272.37 78.9064C270.152 77.4003 267.47 76.66 264.349 76.66V77.66C267.308 77.66 269.785 78.3597 271.808 79.7336C273.831 81.1081 275.436 83.1824 276.607 85.9923L277.53 85.6077ZM264.349 76.66C261.227 76.66 258.653 77.4279 256.676 79.0096L257.301 79.7904C259.057 78.3854 261.391 77.66 264.349 77.66V76.66ZM256.676 79.0096C254.682 80.6053 253.689 82.7805 253.689 85.48H254.689C254.689 83.0595 255.562 81.1814 257.301 79.7904L256.676 79.0096ZM253.689 85.48C253.689 88.0698 254.627 90.0973 256.535 91.4844L257.123 90.6756C255.51 89.5027 254.689 87.7968 254.689 85.48H253.689ZM256.535 91.4844C258.363 92.8141 261.468 94.1668 265.796 95.5561L266.102 94.6039C261.79 93.2198 258.814 91.9059 257.123 90.6756L256.535 91.4844ZM265.801 95.5575C267.347 96.0375 268.436 96.3828 269.071 96.5943L269.387 95.6457C268.741 95.4305 267.644 95.0825 266.097 94.6025L265.801 95.5575ZM269.071 96.5943C269.696 96.8027 270.671 97.1714 272.003 97.7042L272.374 96.7758C271.04 96.2419 270.042 95.8639 269.387 95.6457L269.071 96.5943ZM272.009 97.7067C273.393 98.239 274.388 98.6586 275.005 98.9672L275.452 98.0728C274.79 97.7414 273.758 97.3077 272.368 96.7733L272.009 97.7067ZM275.005 98.9672C275.637 99.283 276.483 99.7327 277.548 100.318L278.03 99.4419C276.961 98.8539 276.101 98.397 275.452 98.0728L275.005 98.9672ZM277.557 100.323C278.658 100.9 279.434 101.432 279.915 101.914L280.622 101.206C280.037 100.621 279.16 100.034 278.021 99.4371L277.557 100.323ZM279.915 101.914C280.438 102.436 281.043 103.093 281.731 103.887L282.487 103.233C281.788 102.427 281.167 101.751 280.622 101.206L279.915 101.914ZM281.755 103.914C282.464 104.623 282.955 105.341 283.245 106.066L284.173 105.694C283.823 104.819 283.246 103.99 282.462 103.206L281.755 103.914ZM283.245 106.066C283.551 106.831 283.81 107.734 284.018 108.778L284.999 108.582C284.781 107.493 284.507 106.529 284.173 105.694L283.245 106.066ZM284.025 108.807C284.28 109.774 284.409 110.825 284.409 111.96H285.409C285.409 110.749 285.271 109.612 284.992 108.553L284.025 108.807ZM284.409 111.96C284.409 116.728 282.681 120.502 279.232 123.334L279.866 124.106C283.563 121.072 285.409 117.006 285.409 111.96H284.409ZM279.235 123.331C275.771 126.122 271.224 127.54 265.549 127.54V128.54C271.393 128.54 276.18 127.078 279.863 124.109L279.235 123.331ZM293.328 71V70.5H292.828V71H293.328ZM300.768 71H301.268V70.5H300.768V71ZM300.768 127V127.5H301.268V127H300.768ZM293.328 127H292.828V127.5H293.328V127ZM293.328 71.5H300.768V70.5H293.328V71.5ZM300.268 71V127H301.268V71H300.268ZM300.768 126.5H293.328V127.5H300.768V126.5ZM293.828 127V71H292.828V127H293.828ZM353.581 79.16L353.214 79.4989L353.217 79.5026L353.581 79.16ZM353.581 118.92L353.215 118.579L353.215 118.579L353.581 118.92ZM312.781 127H312.281V127.5H312.781V127ZM312.781 71V70.5H312.281V71H312.781ZM348.621 113.96L348.251 113.624L348.251 113.624L348.621 113.96ZM348.621 84.04L348.251 84.3758L348.251 84.3758L348.621 84.04ZM320.221 78.04V77.54H319.721V78.04H320.221ZM320.221 119.96H319.721V120.46H320.221V119.96ZM334.621 71.5C342.113 71.5 348.298 74.1651 353.214 79.4988L353.949 78.8212C348.838 73.2749 342.383 70.5 334.621 70.5V71.5ZM353.217 79.5026C358.191 84.7905 360.681 91.2789 360.681 99H361.681C361.681 91.0411 359.105 84.3028 353.945 78.8174L353.217 79.5026ZM360.681 99C360.681 106.721 358.191 113.237 353.215 118.579L353.947 119.261C359.105 113.723 361.681 106.959 361.681 99H360.681ZM353.215 118.579C348.3 123.86 342.115 126.5 334.621 126.5V127.5C342.381 127.5 348.836 124.753 353.947 119.261L353.215 118.579ZM334.621 126.5H312.781V127.5H334.621V126.5ZM313.281 127V71H312.281V127H313.281ZM312.781 71.5H334.621V70.5H312.781V71.5ZM334.621 120.46C340.46 120.46 345.264 118.407 348.992 114.296L348.251 113.624C344.725 117.513 340.196 119.46 334.621 119.46V120.46ZM348.992 114.296C352.711 110.194 354.561 105.083 354.561 99H353.561C353.561 104.863 351.785 109.726 348.251 113.624L348.992 114.296ZM354.561 99C354.561 92.9168 352.711 87.8062 348.992 83.7042L348.251 84.3758C351.785 88.2738 353.561 93.1366 353.561 99H354.561ZM348.992 83.7042C345.264 79.5931 340.46 77.54 334.621 77.54V78.54C340.196 78.54 344.725 80.4869 348.251 84.3758L348.992 83.7042ZM334.621 77.54H320.221V78.54H334.621V77.54ZM319.721 78.04V119.96H320.721V78.04H319.721ZM320.221 120.46H334.621V119.46H320.221V120.46ZM377.643 119.96H377.143V120.46H377.643V119.96ZM403.643 119.96H404.143V119.46H403.643V119.96ZM403.643 127V127.5H404.143V127H403.643ZM370.203 127H369.703V127.5H370.203V127ZM370.203 71V70.5H369.703V71H370.203ZM403.243 71H403.743V70.5H403.243V71ZM403.243 78.04V78.54H403.743V78.04H403.243ZM377.643 78.04V77.54H377.143V78.04H377.643ZM377.643 95.24H377.143V95.74H377.643V95.24ZM401.243 95.24H401.743V94.74H401.243V95.24ZM401.243 102.2V102.7H401.743V102.2H401.243ZM377.643 102.2V101.7H377.143V102.2H377.643ZM377.643 120.46H403.643V119.46H377.643V120.46ZM403.143 119.96V127H404.143V119.96H403.143ZM403.643 126.5H370.203V127.5H403.643V126.5ZM370.703 127V71H369.703V127H370.703ZM370.203 71.5H403.243V70.5H370.203V71.5ZM402.743 71V78.04H403.743V71H402.743ZM403.243 77.54H377.643V78.54H403.243V77.54ZM377.143 78.04V95.24H378.143V78.04H377.143ZM377.643 95.74H401.243V94.74H377.643V95.74ZM400.743 95.24V102.2H401.743V95.24H400.743ZM401.243 101.7H377.643V102.7H401.243V101.7ZM377.143 102.2V119.96H378.143V102.2H377.143Z" fill="black" mask="url(#path-7-outside-1_2214_175)"/>
<path d="M142.888 127.248H113.128V149.04H141.64V157.488H113.128V186H104.2V118.8H142.888V127.248Z" fill="black"/>
<path d="M119.344 16.4V22.736H110.272V50H103.648V22.736H94.624V16.4H119.344ZM142.146 16.4H148.722V50H142.146V36.08H129.666V50H123.042V16.4H129.666V29.744H142.146V16.4ZM161.588 43.664H175.748V50H154.964V16.4H175.508V22.736H161.588V29.888H174.308V36.128H161.588V43.664Z" fill="black"/>
</g>
<defs>
<clipPath id="clip0_2214_175">
<rect width="405" height="187" fill="white"/>
</clipPath>
<clipPath id="clip1_2214_175">
<rect width="170" height="224" fill="white" transform="translate(-24 -21)"/>
</clipPath>
<clipPath id="clip2_2214_175">
<rect width="87" height="95" fill="white" transform="translate(69.2573 55.2242) rotate(45)"/>
</clipPath>
<clipPath id="clip3_2214_175">
<rect width="87" height="95" fill="white" transform="translate(45.5183 129.551) rotate(-135)"/>
</clipPath>
</defs>
</svg>
