<svg width="2879" height="512" viewBox="0 0 2879 512" fill="none" xmlns="http://www.w3.org/2000/svg">
<path d="M5.60742 462L213.304 50L421.001 462H351.768L213.304 187.333L74.8396 462H5.60742Z" fill="#012946"/>
<path d="M400.48 278.56C310.554 331.439 270.481 331.439 210.56 319.975C154.561 309.262 111.804 288.041 60.9249 300.172C17.5139 310.523 0.28845 331.439 0.28845 331.439C96.3947 289.593 110.468 333.906 210.644 350.644C310.554 367.338 356.042 325.265 368.354 315.776C380.666 306.286 392.712 294.414 400.48 278.56Z" fill="#012946"/>
<path d="M670.25 389H643.25V123.5H803.375V147.5H670.25V239.75H794V263.375H670.25V389ZM880.821 389H853.821V123.5H880.821V389ZM978.233 365H1101.98V389H951.233V123.5H978.233V365ZM1226.99 123.5H1315.12C1331.62 123.5 1348.12 126.25 1364.62 131.75C1381.37 137.25 1396.37 145.625 1409.62 156.875C1423.12 167.875 1433.99 181.75 1442.24 198.5C1450.49 215 1454.62 234.25 1454.62 256.25C1454.62 278.5 1450.49 297.875 1442.24 314.375C1433.99 330.875 1423.12 344.75 1409.62 356C1396.37 367 1381.37 375.25 1364.62 380.75C1348.12 386.25 1331.62 389 1315.12 389H1226.99V123.5ZM1253.99 365H1307.62C1327.62 365 1344.99 361.875 1359.74 355.625C1374.74 349.375 1387.12 341.25 1396.87 331.25C1406.62 321 1413.87 309.375 1418.62 296.375C1423.62 283.375 1426.12 270 1426.12 256.25C1426.12 242.5 1423.62 229.125 1418.62 216.125C1413.87 203.125 1406.62 191.625 1396.87 181.625C1387.12 171.375 1374.74 163.125 1359.74 156.875C1344.99 150.625 1327.62 147.5 1307.62 147.5H1253.99V365ZM1512.68 211.625H1491.3L1516.43 123.5H1543.05L1512.68 211.625ZM1574.11 389H1544.49L1659.24 123.5H1685.49L1799.49 389H1769.49L1740.24 319.25H1602.99L1574.11 389ZM1613.11 294.5H1730.11L1671.61 153.5L1613.11 294.5ZM1865.56 389H1838.56V123.5H1916.56C1929.56 123.5 1941.56 124.75 1952.56 127.25C1963.81 129.75 1973.44 133.875 1981.44 139.625C1989.69 145.125 1996.06 152.375 2000.56 161.375C2005.06 170.375 2007.31 181.375 2007.31 194.375C2007.31 204.125 2005.56 213 2002.06 221C1998.56 229 1993.81 236 1987.81 242C1981.81 247.75 1974.69 252.375 1966.44 255.875C1958.19 259.375 1949.19 261.625 1939.44 262.625L2017.06 389H1984.06L1910.56 264.875H1865.56V389ZM1865.56 241.625H1912.44C1934.19 241.625 1950.94 237.75 1962.69 230C1974.44 222 1980.31 210.125 1980.31 194.375C1980.31 185.625 1978.69 178.25 1975.44 172.25C1972.19 166.25 1967.69 161.375 1961.94 157.625C1956.19 153.875 1949.19 151.125 1940.94 149.375C1932.69 147.625 1923.56 146.75 1913.56 146.75H1865.56V241.625ZM2090.05 389H2063.05V123.5H2090.05V389ZM2158.59 389H2128.96L2243.71 123.5H2269.96L2383.96 389H2353.96L2324.71 319.25H2187.46L2158.59 389ZM2197.59 294.5H2314.59L2256.09 153.5L2197.59 294.5ZM2611.29 349.625H2612.04V123.5H2639.04V389H2605.29L2450.79 160.625H2450.04V389H2423.04V123.5H2456.79L2611.29 349.625ZM2736.41 365H2878.54V389H2709.41V123.5H2874.04V147.5H2736.41V239H2865.04V262.625H2736.41V365Z" fill="#012946"/>
</svg>
